<svg xmlns="http://www.w3.org/2000/svg" version="1.2" viewBox="0 0 280 90" width="280" height="90">
    <style/>
    <path fill="#FFFFFF" d="m55.1 9.8v8.7c-0.5 4.1-2 7.8-4.5 11.2 0.2 0.2 0.5 0.3 0.8 0.5 3.7 2.5 7.3 5.6 10.9 9.4l-11.4 10.8c-3.2-3.7-6.5-6.7-9.9-9-0.7-0.4-1.3-0.8-2-1.2-3.6 2.4-7.5 4.3-11.7 6-5 2-9.9 3.4-14.7 4.2l-6.6-12.5c7-1.8 13.2-3.9 18.8-6.3 5.4-2.3 9.3-4.9 11.5-7.8h-26.8v-14h12.2v-7.8h18.5v7.8zm11.6 39.9v-44.7h17.4v44.7zm17.4 35.8h-70.1v-31.2h70.1zm-17.5-13v-5.2h-35.1v5.2zm75.1-43.1h-49.1v-14.9h15.3v-12h18.5v12h15.3zm-24.4 38.5c1.9 0 3.5-0.8 4.9-2.5 1.2-1.6 1.9-4.2 1.9-7.8 0-3.4-0.7-6-1.9-7.8-1.4-1.6-3-2.5-4.9-2.5-2 0-3.7 0.9-4.9 2.5-1.4 1.8-2 4.4-2 7.8 0 3.6 0.6 6.2 1.9 7.8 1.2 1.7 2.9 2.5 5 2.5zm0 15c-7.6 0-13.4-2.3-17.4-6.9-4-4.5-6-10.6-6-18.4 0-7.6 2-13.8 6-18.4 3.9-4.6 9.7-6.9 17.4-6.9 7.2 0 12.9 2.3 17.1 6.9 4.1 4.6 6.2 10.8 6.2 18.4 0 7.8-2 13.9-5.9 18.4-4 4.6-9.8 6.9-17.4 6.9zm63.5-51.2v17.3c-1.6 0-3.7 0.2-6.1 0.4-2.2 0.3-4.3 0.7-6.2 1.2v34.9h-18.5v-80.5h18.5v28.5c1.9-0.6 4-1.1 6.3-1.4 2.5-0.2 4.5-0.4 6-0.4zm53.9-2.3h-49.1v-14.9h15.3v-12h18.5v12h15.3zm-24.4 38.5c1.9 0 3.5-0.8 4.9-2.5 1.2-1.6 1.9-4.2 1.9-7.8 0-3.4-0.7-6-1.9-7.8-1.4-1.6-3-2.5-4.9-2.5-2 0-3.7 0.9-4.9 2.5-1.4 1.8-2 4.4-2 7.8 0 3.6 0.6 6.2 1.9 7.8 1.2 1.7 2.9 2.5 5 2.5zm0 15c-7.6 0-13.4-2.3-17.4-6.9-4-4.5-6-10.6-6-18.4 0-7.6 2-13.8 6-18.4 3.9-4.6 9.7-6.9 17.4-6.9 7.2 0 12.9 2.3 17.1 6.9 4.1 4.6 6.2 10.8 6.2 18.4 0 7.8-2 13.9-5.9 18.4-4 4.6-9.8 6.9-17.4 6.9zm63.5-51.2v17.3c-1.6 0-3.7 0.2-6.1 0.4-2.2 0.3-4.3 0.7-6.2 1.2v34.9h-18.5v-80.5h18.5v28.5c1.9-0.6 4-1.1 6.3-1.4 2.5-0.2 4.5-0.4 6-0.4z"/>
</svg>